<svg width="250" height="350" xmlns="http://www.w3.org/2000/svg" viewBox="0 0 250 350"><g transform="matrix(.05 0 0 -.135 0 512)" fill="#172554" stroke="none"><path d="M2394 3640c-255 -46 -476 -187 -571 -367 -44 -81 -66 -179 -66 -293 -1 -167 50 -287 173 -410 96 -96 179 -148 440 -272 314 -148 344 -168 387 -256 25 -51 28 -67 28 -162 0 -117 -19 -189 -81 -312 -30 -62 -32 -68 -14 -68 37 0 78 48 108 128 44 114 55 177 50 283 -6 119 -30 180 -102 247 -59 56 -62 57 -352 198 -250 120 -336 174 -424 263 -106 108 -150 215 -150 361 1 239 117 406 365 526 136 66 195 79 365 79 124 0 156 -3 220 -23 108 -34 261 -113 372 -193 94 -67 118 -79 118 -60 0 36 -240 190 -400 257 -73 30 -52 30 38 0 101 -35 199 -89 315 -173 111 -81 152 -88 66 -11 -113 102 -277 186 -459 235 -76 20 -124 26 -235 29 -77 1 -163 -1 -191 -6"/><path d="M2347 3548c-26 -20 -85 -159 -102 -238 -36 -173 -2 -312 102 -411 69 -66 82 -74 358 -212 138 -69 279 -145 315 -169 87 -56 191 -161 223 -224 96 -189 71 -415 -63 -567 -154 -174 -489 -293 -726 -257 -165 25 -377 116 -530 228 -75 54 -126 72 -88 31 61 -67 239 -171 394 -230 58 -22 66 -28 35 -23 -113 18 -272 93 -392 185 -74 58 -93 68 -93 50 0 -13 82 -84 144 -125 238 -157 581 -220 836 -153 279 73 468 201 549 370 40 83 50 134 51 242 0 223 -91 381 -299 520 -53 35 -199 115 -326 177 -257 127 -293 149 -348 204 -52 52 -74 99 -89 182 -19 115 10 230 110 425 6 12 -43 8 -61 -5"/></g></svg>